<svg xmlns="http://www.w3.org/2000/svg" viewBox="0 0 128 128" role="img" aria-label="تداريب في المقاولات">
  <defs>
    <linearGradient id="igBg" x1="0" y1="0" x2="1" y2="1"><stop offset="0" stop-color="#e7f4f8"/><stop offset="1" stop-color="#d4ebf2"/></linearGradient>
  </defs>
  <rect width="128" height="128" rx="28" fill="url(#igBg)"/>
  <circle cx="98" cy="30" r="30" fill="#ffffff" opacity="0.35"/>
  <!-- company building -->
  <rect x="20" y="36" width="48" height="66" rx="5" fill="#1f6f8b"/>
  <rect x="20" y="30" width="48" height="9" rx="4" fill="#123a4a"/>
  <g fill="#c3e5f0">
    <rect x="27" y="45" width="11" height="11" rx="2"/><rect x="44" y="45" width="11" height="11" rx="2"/>
    <rect x="27" y="62" width="11" height="11" rx="2"/><rect x="44" y="62" width="11" height="11" rx="2"/>
  </g>
  <rect x="36" y="82" width="16" height="20" rx="2" fill="#123a4a"/>
  <!-- trainee with briefcase -->
  <g transform="translate(86 60)">
    <circle cx="0" cy="-2" r="10" fill="#c96a54"/>
    <path d="M-15 34 a15 17 0 0 1 30 0 Z" fill="#2f7d49"/>
    <rect x="10" y="16" width="20" height="15" rx="2.5" fill="#f6a821" stroke="#ffffff" stroke-width="1.8"/>
    <rect x="16" y="11" width="8" height="6" rx="1.6" fill="#f6a821" stroke="#ffffff" stroke-width="1.4"/>
    <rect x="10" y="22" width="20" height="2.4" fill="#ffffff" opacity=".8"/>
  </g>
  <!-- gear accent -->
  <g transform="translate(30 108)"></g>
</svg>
