<svg xmlns="http://www.w3.org/2000/svg" viewBox="0 0 460 300" role="img" aria-label="مساعد إداري">
  <defs>
    <linearGradient id="a1" x1="0" y1="0" x2="1" y2="1"><stop offset="0" stop-color="#37a06a"/><stop offset="1" stop-color="#1f5a34"/></linearGradient>
  </defs>
  <rect width="460" height="300" fill="url(#a1)"/>
  <circle cx="400" cy="60" r="90" fill="#ffffff" opacity="0.06"/>
  <circle cx="60" cy="250" r="110" fill="#ffffff" opacity="0.06"/>
  <!-- desk -->
  <rect x="40" y="210" width="380" height="14" rx="4" fill="#123a24" opacity="0.5"/>
  <!-- monitor -->
  <g transform="translate(300 90)">
    <rect x="0" y="0" width="120" height="80" rx="8" fill="#eaf6ef" stroke="#0f3b22" stroke-width="3"/>
    <rect x="10" y="10" width="100" height="60" rx="4" fill="#2f7d49"/>
    <path d="M20 30h80M20 44h60M20 56h72" stroke="#bfe6cd" stroke-width="4" stroke-linecap="round"/>
    <rect x="52" y="80" width="16" height="16" fill="#0f3b22"/>
    <rect x="38" y="96" width="44" height="8" rx="3" fill="#0f3b22"/>
  </g>
  <!-- document -->
  <g transform="translate(70 70)">
    <rect x="0" y="0" width="130" height="150" rx="8" fill="#ffffff"/>
    <rect x="0" y="0" width="130" height="34" rx="8" fill="#f6a821"/>
    <path d="M18 60h94M18 78h94M18 96h70M18 114h94M18 132h60" stroke="#cdd9e2" stroke-width="6" stroke-linecap="round"/>
    <circle cx="150" cy="150" r="22" fill="#c96a54"/>
    <path d="M141 150l6 6 12-12" stroke="#fff" stroke-width="4" fill="none" stroke-linecap="round" stroke-linejoin="round"/>
  </g>
  <!-- pen -->
  <g transform="translate(228 150) rotate(40)"><rect x="0" y="0" width="90" height="10" rx="5" fill="#eaf6ef"/><path d="M90 0l16 5-16 5z" fill="#f6a821"/></g>
</svg>
