<svg xmlns="http://www.w3.org/2000/svg" viewBox="0 0 460 300" role="img" aria-label="كهرباء البناء">
  <defs>
    <linearGradient id="b1" x1="0" y1="0" x2="1" y2="1"><stop offset="0" stop-color="#5f7180"/><stop offset="1" stop-color="#2f4858"/></linearGradient>
  </defs>
  <rect width="460" height="300" fill="url(#b1)"/>
  <circle cx="80" cy="70" r="95" fill="#ffffff" opacity="0.06"/>
  <circle cx="400" cy="250" r="120" fill="#ffffff" opacity="0.06"/>
  <!-- house -->
  <g transform="translate(90 80)">
    <path d="M0 60 L80 0 L160 60 Z" fill="#c96a54"/>
    <rect x="16" y="60" width="128" height="110" fill="#eaf1f6"/>
    <rect x="40" y="90" width="34" height="34" rx="3" fill="#9fd6e6"/>
    <rect x="86" y="90" width="34" height="34" rx="3" fill="#9fd6e6"/>
    <rect x="66" y="130" width="28" height="40" rx="3" fill="#7a4a2b"/>
  </g>
  <!-- big bulb -->
  <g transform="translate(330 120)">
    <circle r="46" fill="#ffe27a"/>
    <circle r="46" fill="none" stroke="#f6a821" stroke-width="3"/>
    <path d="M-16 40 h32 M-12 52 h24 M-8 64 h16" stroke="#2f4858" stroke-width="5" stroke-linecap="round"/>
    <path d="M-14 8 q14 -20 28 0" fill="none" stroke="#d98b1e" stroke-width="4" stroke-linecap="round"/>
    <g stroke="#ffe27a" stroke-width="5" stroke-linecap="round">
      <path d="M0 -70 v-16"/><path d="M52 -52 l12 -12"/><path d="M70 0 h16"/><path d="M-52 -52 l-12 -12"/><path d="M-70 0 h-16"/>
    </g>
  </g>
  <!-- wire -->
  <path d="M20 250 q60 -40 120 0 t120 0 t120 0" fill="none" stroke="#f6a821" stroke-width="4" stroke-linecap="round" opacity="0.8"/>
</svg>
